D:\school\WTK\thesis\model\3dpredictsim\Results\batch_windlass\Pog_s1_tmt_aCst_d05_k500_WL10_ig24_act_TTC_GRF.mot
nRows=15
nColumns=19

name D:\school\WTK\thesis\model\3dpredictsim\Results\batch_windlass\Pog_s1_tmt_aCst_d05_k500_WL10_ig24_act_TTC_GRF.mot
datacolumns 19
datarows 15
range 0.5906664054 0.7560529990
endheader
time 	ground_force_vx	ground_force_vy	ground_force_vz	ground_force_px	ground_force_py	ground_force_pz	1_ground_force_vx	1_ground_force_vy	1_ground_force_vz	1_ground_force_px	1_ground_force_py	1_ground_force_pz	ground_torque_x	ground_torque_y	ground_torque_z	1_ground_torque_x	1_ground_torque_y	1_ground_torque_z
        0.5906664054	       94.6736217865	      403.2109628393	       -1.0419315939	        0.3712804989	        0.0000000000	        0.0311601088	      -42.6350771445	       30.7552936966	       -7.2590469297	        0.8911991580	        0.0000000000	       -0.0647921168	        0.0000000000	        0.0000000000	        0.0000000000	        0.0000000000	        0.0000000000	        0.0000000000	
        0.6024797336	       64.3594283032	      301.9871183367	        6.0067526933	        0.3802825461	        0.0000000000	        0.0267310518	      -99.2844770821	       87.2890356363	      -21.7831804866	        0.9036185726	        0.0000000000	       -0.0632341788	        0.0000000000	        0.0000000000	        0.0000000000	        0.0000000000	        0.0000000000	        0.0000000000	
        0.6142930617	       39.0034924672	      220.2519131913	       17.7389178788	        0.3912144375	        0.0000000000	        0.0211113397	     -114.2984558084	      257.7805518911	      -34.0801737229	        0.9219350238	        0.0000000000	       -0.0639361947	        0.0000000000	        0.0000000000	        0.0000000000	        0.0000000000	        0.0000000000	        0.0000000000	
        0.6261063898	       30.1783714744	      184.3807636805	       19.1891527464	        0.3920609408	        0.0000000000	        0.0206002831	      -85.2166531552	      592.3916889806	        7.9337000624	        0.9327350095	        0.0000000000	       -0.0641171744	        0.0000000000	        0.0000000000	        0.0000000000	        0.0000000000	        0.0000000000	        0.0000000000	
        0.6379197179	       23.8534234299	      134.9771465693	       17.6808926396	        0.3923204294	        0.0000000000	        0.0206161006	     -127.1209775969	      854.0979313426	       26.6880194325	        0.9442167179	        0.0000000000	       -0.0630972472	        0.0000000000	        0.0000000000	        0.0000000000	        0.0000000000	        0.0000000000	        0.0000000000	
        0.6497330460	        4.4561523180	       75.4652672045	       16.2593373200	        0.3914786097	        0.0000000000	        0.0209976992	     -161.3358442399	      979.9122558646	       27.1657719139	        0.9561616908	        0.0000000000	       -0.0610460446	        0.0000000000	        0.0000000000	        0.0000000000	        0.0000000000	        0.0000000000	        0.0000000000	
        0.6615463741	       -6.5998001591	       11.9181212384	        2.6561919250	        0.3877434052	        0.0000000000	        0.0202616052	     -162.3623493486	      958.6227759031	       22.9270835163	        0.9630308543	        0.0000000000	       -0.0595320052	        0.0000000000	        0.0000000000	        0.0000000000	        0.0000000000	        0.0000000000	        0.0000000000	
        0.6733597022	       -2.5934054238	        2.1527333763	       -0.1449871328	        0.0000000000	        0.0000000000	        0.0000000000	     -136.8255200902	      878.3817227446	       21.1377017668	        0.9663408552	        0.0000000000	       -0.0587151833	        0.0000000000	        0.0000000000	        0.0000000000	        0.0000000000	        0.0000000000	        0.0000000000	
        0.6851730303	       -8.4973108243	        6.1107041285	       -0.6089956521	        0.0000000000	        0.0000000000	        0.0000000000	     -118.3709178652	      805.2450974508	       19.2202527427	        0.9696317805	        0.0000000000	       -0.0581434960	        0.0000000000	        0.0000000000	        0.0000000000	        0.0000000000	        0.0000000000	        0.0000000000	
        0.6969863584	       -7.1066013951	        4.5013624084	       -0.5607172428	        0.0000000000	        0.0000000000	        0.0000000000	     -103.5980271159	      756.5219062426	       19.2386154415	        0.9728092382	        0.0000000000	       -0.0577129341	        0.0000000000	        0.0000000000	        0.0000000000	        0.0000000000	        0.0000000000	        0.0000000000	
        0.7087996865	       -5.1959805107	        2.9985630489	       -0.4304463120	        0.0000000000	        0.0000000000	        0.0000000000	      -90.5460319025	      721.2594563341	       20.6215528354	        0.9758285523	        0.0000000000	       -0.0573893818	        0.0000000000	        0.0000000000	        0.0000000000	        0.0000000000	        0.0000000000	        0.0000000000	
        0.7206130146	       -3.5238566504	        1.8781576169	       -0.3140729428	        0.0000000000	        0.0000000000	        0.0000000000	      -77.8792600456	      691.4115155404	       21.6629130850	        0.9793580032	        0.0000000000	       -0.0570753120	        0.0000000000	        0.0000000000	        0.0000000000	        0.0000000000	        0.0000000000	        0.0000000000	
        0.7324263428	       -2.8630345455	        1.4446512200	       -0.2515645688	        0.0000000000	        0.0000000000	        0.0000000000	      -67.0658012490	      667.5782282353	       21.8924824133	        0.9840473062	        0.0000000000	       -0.0566410098	        0.0000000000	        0.0000000000	        0.0000000000	        0.0000000000	        0.0000000000	        0.0000000000	
        0.7442396709	       -2.1607413916	        1.0475130990	       -0.1878981352	        0.0000000000	        0.0000000000	        0.0000000000	      -58.9551986237	      648.3830193374	       22.4063556446	        0.9895544203	        0.0000000000	       -0.0560569421	        0.0000000000	        0.0000000000	        0.0000000000	        0.0000000000	        0.0000000000	        0.0000000000	
        0.7560529990	       -1.5621378068	        0.7336931065	       -0.1336253490	        0.0000000000	        0.0000000000	        0.0000000000	      -52.1793157602	      633.0721615762	       22.8490392451	        0.9955961913	        0.0000000000	       -0.0553594724	        0.0000000000	        0.0000000000	        0.0000000000	        0.0000000000	        0.0000000000	        0.0000000000	
